<?xml version="1.0" standalone="no"?>
<!DOCTYPE svg PUBLIC "-//W3C//DTD SVG 20010904//EN"
 "http://www.w3.org/TR/2001/REC-SVG-20010904/DTD/svg10.dtd">
<svg version="1.0" xmlns="http://www.w3.org/2000/svg"
 width="700.000000pt" height="700.000000pt" viewBox="0 0 700.000000 700.000000"
 preserveAspectRatio="xMidYMid meet">
<metadata>
Created by potrace 1.14, written by Peter Selinger 2001-2017
</metadata>
<g transform="translate(0.000000,700.000000) scale(0.100000,-0.100000)"
fill="#000000" stroke="none">
<path d="M3378 6415 c-2 -1 -46 -5 -98 -8 -113 -6 -280 -31 -405 -58 -49 -11
-97 -22 -106 -24 -54 -12 -241 -74 -339 -112 -371 -146 -699 -361 -985 -648
-184 -183 -284 -309 -441 -555 -181 -284 -350 -758 -390 -1095 -4 -27 -8 -52
-9 -55 -8 -13 -19 -227 -19 -360 0 -225 11 -345 50 -545 110 -577 382 -1093
794 -1505 142 -142 162 -160 280 -251 237 -182 459 -309 722 -413 120 -47 355
-120 424 -130 22 -4 55 -11 74 -16 39 -10 217 -37 307 -46 32 -4 628 -7 1325
-9 1156 -2 1267 -1 1270 14 2 9 3 140 3 291 l-1 275 -1229 1 c-677 1 -1257 4
-1290 7 -33 4 -80 9 -105 12 -786 100 -1468 591 -1812 1305 -84 174 -163 415
-193 590 -14 85 -24 160 -30 220 -6 72 -7 363 -1 395 2 11 7 52 11 90 21 214
118 537 225 750 192 380 453 675 801 908 312 208 645 328 1044 377 85 11 397
15 440 7 11 -3 52 -8 90 -11 39 -4 86 -11 105 -16 19 -5 53 -11 75 -15 139
-20 410 -114 582 -201 111 -56 316 -183 374 -232 283 -237 439 -415 597 -682
167 -284 275 -626 307 -975 7 -73 8 -355 1 -390 -2 -11 -7 -54 -12 -95 -4 -41
-8 -77 -9 -80 -1 -3 -5 -25 -9 -50 -14 -83 -57 -242 -90 -339 -125 -359 -310
-648 -586 -918 l-75 -73 395 0 395 0 61 88 c188 268 339 594 423 915 31 116
68 306 76 392 25 261 25 523 0 715 -13 91 -37 227 -50 280 -8 30 -16 66 -19
80 -16 84 -100 332 -148 440 -77 172 -193 377 -287 510 -320 451 -755 804
-1240 1009 -118 49 -152 63 -161 65 -3 1 -41 14 -85 28 -162 54 -411 110 -545
123 -143 14 -193 17 -327 20 -84 1 -153 1 -155 0z"/>
<path d="M3365 5233 c-245 -56 -436 -286 -447 -538 -9 -230 122 -452 325 -549
93 -44 143 -57 236 -60 378 -12 661 321 592 694 -7 36 -28 97 -46 136 -120
250 -389 379 -660 317z"/>
<path d="M2290 4083 c-221 -27 -400 -153 -486 -341 -143 -312 14 -678 340
-792 365 -129 764 146 769 530 1 131 -20 218 -78 315 -94 156 -254 262 -423
280 -31 4 -66 8 -77 9 -11 1 -31 1 -45 -1z"/>
<path d="M4648 4085 c-2 -1 -25 -5 -53 -8 -132 -15 -235 -67 -338 -169 -90
-90 -139 -179 -161 -296 -75 -396 265 -749 663 -687 333 51 555 387 472 715
-57 226 -258 411 -475 435 -95 11 -105 12 -108 10z"/>
<path d="M3403 2908 c-198 -30 -386 -189 -453 -384 -18 -52 -34 -152 -33 -204
7 -326 294 -589 618 -567 261 18 475 199 534 453 17 72 15 198 -4 269 -43 160
-160 306 -301 377 -67 34 -86 40 -159 54 -49 10 -147 11 -202 2z"/>
</g>
</svg>
